<?xml version="1.0" encoding="utf-8"?>
<!DOCTYPE svg PUBLIC "-//W3C//DTD SVG 1.1//EN" "http://www.w3.org/Graphics/SVG/1.1/DTD/svg11.dtd">
<svg version="1.1" baseProfile="full"
 xmlns="http://www.w3.org/2000/svg"
 xmlns:xlink="http://www.w3.org/1999/xlink"
 xmlns:ev="http://www.w3.org/2001/xml-events" 
  height="9px" 
  width="13px" 
>
<path fill="rgb( 69, 69, 69 )"
 d="M11.65,0 C11.65,0 0.35200000000003,0 0.35200000000003,0 C0.15699999999998,0 0,0.15699999999998 0,0.35000000000002 C0,0.35000000000002 0,8.64800000000002 0,8.64800000000002 C0,8.84100000000001 0.15699999999998,8.99799999999999 0.35200000000003,8.99799999999999 C0.35200000000003,8.99799999999999 11.65,8.99799999999999 11.65,8.99799999999999 C11.844,8.99799999999999 12.001,8.84100000000001 12.001,8.64800000000002 C12.001,8.64800000000002 12.001,0.35000000000002 12.001,0.35000000000002 C12.001,0.15699999999998 11.844,0 11.65,0 ZM10.582,0.69999999999999 C10.582,0.69999999999999 6.00100000000003,4.06400000000002 6.00100000000003,4.06400000000002 C6.00100000000003,4.06400000000002 1.41899999999998,0.69999999999999 1.41899999999998,0.69999999999999 C1.41899999999998,0.69999999999999 10.582,0.69999999999999 10.582,0.69999999999999 ZM0.70300000000003,8.298 C0.70300000000003,8.298 0.70300000000003,1.04300000000001 0.70300000000003,1.04300000000001 C0.70300000000003,1.04300000000001 5.79200000000003,4.77999999999997 5.79200000000003,4.77999999999997 C5.85399999999999,4.82600000000002 5.92700000000002,4.84899999999999 6.00100000000003,4.84899999999999 C6.07400000000001,4.84899999999999 6.14699999999999,4.82600000000002 6.209,4.77999999999997 C6.209,4.77999999999997 11.298,1.04300000000001 11.298,1.04300000000001 C11.298,1.04300000000001 11.298,8.298 11.298,8.298 C11.298,8.298 0.70300000000003,8.298 0.70300000000003,8.298 Z "/>
</svg>
