<?xml version="1.0" encoding="utf-8"?>
<!DOCTYPE svg PUBLIC "-//W3C//DTD SVG 1.1//EN" "http://www.w3.org/Graphics/SVG/1.1/DTD/svg11.dtd">
<svg version="1.1" baseProfile="full"
 xmlns="http://www.w3.org/2000/svg"
 xmlns:xlink="http://www.w3.org/1999/xlink"
 xmlns:ev="http://www.w3.org/2001/xml-events" 
  height="12px" 
  width="12px" 
>
<path fill="rgb( 78, 95, 111 )"
 d="M6,0 C2.68599999999992,0 0,0.79900000000001 0,1.786 C0,1.786 0,2.233 0,2.233 C0,2.50399999999999 0.10799999999995,2.749 0.28400000000011,2.929 C0.28400000000011,2.929 0.28199999999993,2.929 0.28199999999993,2.929 C0.28199999999993,2.929 0.29099999999994,2.93799999999999 0.29099999999994,2.93799999999999 C0.29199999999992,2.93899999999999 0.2940000000001,2.941 0.29500000000007,2.94200000000001 C0.29500000000007,2.94200000000001 4.17100000000005,6.816 4.17100000000005,6.816 C4.44000000000005,7.08500000000001 4.59300000000007,7.34399999999999 4.59300000000007,7.67500000000001 C4.59300000000007,7.67500000000001 4.59300000000007,11.334 4.59300000000007,11.334 C4.59300000000007,11.702 5.22000000000003,12 5.99299999999994,12 C6.76600000000008,12 7.39300000000003,11.702 7.39300000000003,11.334 C7.39300000000003,11.334 7.39300000000003,7.67500000000001 7.39300000000003,7.67500000000001 C7.39300000000003,7.67500000000001 7.39300000000003,7.67500000000001 7.39300000000003,7.67500000000001 C7.39300000000003,7.34299999999999 7.54700000000003,7.084 7.81700000000001,6.81399999999999 C7.83200000000011,6.79900000000001 7.8420000000001,6.78700000000001 7.84799999999996,6.77600000000001 C7.84799999999996,6.77600000000001 11.6790000000001,2.96299999999999 11.6790000000001,2.96299999999999 C11.875,2.78 12,2.52199999999999 12,2.233 C12,2.233 12,1.786 12,1.786 C12,0.79900000000001 9.3130000000001,0 6,0 ZM6,2.98500000000001 C3.12799999999993,2.98500000000001 0.79999999999995,2.44800000000001 0.79999999999995,1.786 C0.79999999999995,1.12299999999999 3.12799999999993,0.58600000000001 6,0.58600000000001 C8.87200000000007,0.58600000000001 11.2,1.12299999999999 11.2,1.786 C11.2,2.44800000000001 8.87200000000007,2.98500000000001 6,2.98500000000001 Z "/>
</svg>
