<?xml version="1.0" encoding="utf-8"?>
<!DOCTYPE svg PUBLIC "-//W3C//DTD SVG 1.1//EN" "http://www.w3.org/Graphics/SVG/1.1/DTD/svg11.dtd">
<svg version="1.1" baseProfile="full"
 xmlns="http://www.w3.org/2000/svg"
 xmlns:xlink="http://www.w3.org/1999/xlink"
 xmlns:ev="http://www.w3.org/2001/xml-events" 
  height="14px" 
  width="9px" 
>
<path fill="rgb( 252, 88, 79 )"
 d="M8.56700000000001,5.22500000000002 C8.56700000000001,5.22500000000002 7.00299999999993,5.22500000000002 7.00299999999993,5.22500000000002 C6.7679999999998,5.22500000000002 6.57600000000002,5.04300000000001 6.57600000000002,4.81799999999998 C6.57600000000002,4.59299999999996 6.7679999999998,4.40999999999997 7.00299999999993,4.40999999999997 C7.00299999999993,4.40999999999997 8.56700000000001,4.40999999999997 8.56700000000001,4.40999999999997 C8.80299999999988,4.40999999999997 8.99299999999994,4.59299999999996 8.99299999999994,4.81799999999998 C8.99299999999994,5.04300000000001 8.80199999999991,5.22500000000002 8.56700000000001,5.22500000000002 ZM8.56700000000001,3.93599999999992 C8.56700000000001,3.93599999999992 7.00299999999993,3.93599999999992 7.00299999999993,3.93599999999992 C6.7679999999998,3.93599999999992 6.57600000000002,3.75199999999995 6.57600000000002,3.52800000000002 C6.57600000000002,3.303 6.7679999999998,3.12 7.00299999999993,3.12 C7.00299999999993,3.12 8.56700000000001,3.12 8.56700000000001,3.12 C8.80299999999988,3.12 8.99299999999994,3.303 8.99299999999994,3.52800000000002 C8.99299999999994,3.75199999999995 8.80199999999991,3.93599999999992 8.56700000000001,3.93599999999992 ZM7.61899999999991,10.3539999999999 C7.61899999999991,12.364 5.91099999999983,13.999 3.81299999999987,13.999 C1.71100000000001,13.999 0,12.364 0,10.3539999999999 C0,9.06999999999994 0.69599999999991,7.90300000000002 1.83399999999983,7.25199999999995 C1.83399999999983,7.25199999999995 1.83399999999983,1.96500000000003 1.83399999999983,1.96500000000003 C1.83399999999983,0.88199999999995 2.75199999999995,0 3.87999999999988,0 C4.42200000000003,0 4.952,0.20999999999992 5.33399999999983,0.57600000000002 C5.72199999999998,0.94799999999998 5.93599999999992,1.43999999999994 5.93599999999992,1.96399999999994 C5.93599999999992,1.96399999999994 5.93599999999992,7.34000000000003 5.93599999999992,7.34000000000003 C6.97899999999981,8.00699999999995 7.61599999999999,9.14099999999996 7.61899999999991,10.3539999999999 ZM5.29499999999985,7.91800000000001 C5.29499999999985,7.91800000000001 5.08199999999988,7.80099999999993 5.08199999999988,7.80099999999993 C5.08199999999988,7.80099999999993 5.08199999999988,1.96399999999994 5.08199999999988,1.96399999999994 C5.08199999999988,1.654 4.96100000000001,1.37299999999993 4.73000000000002,1.15300000000002 C4.50499999999988,0.93799999999999 4.19399999999996,0.81499999999994 3.87799999999993,0.81499999999994 C3.221,0.81499999999994 2.68499999999995,1.33100000000002 2.68499999999995,1.96399999999994 C2.68499999999995,1.96399999999994 2.68499999999995,7.74299999999994 2.68499999999995,7.74299999999994 C2.68499999999995,7.74299999999994 2.452,7.85599999999999 2.452,7.85599999999999 C1.46399999999994,8.33499999999992 0.85099999999989,9.29200000000003 0.85099999999989,10.353 C0.85099999999989,11.913 2.17999999999984,13.183 3.8119999999999,13.183 C5.43999999999983,13.183 6.76299999999992,11.914 6.76299999999992,10.353 C6.76299999999992,9.351 6.20100000000002,8.41599999999994 5.29499999999985,7.91800000000001 ZM3.80999999999995,12.002 C2.86899999999991,12.002 2.10399999999981,11.271 2.10399999999981,10.372 C2.10399999999981,9.59399999999994 2.67399999999998,8.94600000000003 3.4369999999999,8.78300000000002 C3.4369999999999,8.78300000000002 3.4369999999999,3.85000000000002 3.4369999999999,3.85000000000002 C3.4369999999999,3.62400000000002 3.62799999999993,3.44200000000001 3.86399999999981,3.44200000000001 C4.09899999999993,3.44200000000001 4.28999999999996,3.62400000000002 4.28999999999996,3.85000000000002 C4.28999999999996,3.85000000000002 4.28999999999996,8.81499999999994 4.28999999999996,8.81499999999994 C4.99799999999982,9.01400000000001 5.51599999999985,9.63099999999997 5.51599999999985,10.372 C5.51599999999985,11.271 4.75199999999995,12.002 3.80999999999995,12.002 ZM6.57600000000002,6.10799999999995 C6.57600000000002,5.88400000000001 6.7679999999998,5.70100000000002 7.00299999999993,5.70100000000002 C7.00299999999993,5.70100000000002 8.56700000000001,5.70100000000002 8.56700000000001,5.70100000000002 C8.80299999999988,5.70100000000002 8.99299999999994,5.88400000000001 8.99299999999994,6.10799999999995 C8.99299999999994,6.33399999999995 8.80199999999991,6.51599999999996 8.56700000000001,6.51599999999996 C8.56700000000001,6.51599999999996 7.00299999999993,6.51599999999996 7.00299999999993,6.51599999999996 C6.7679999999998,6.51599999999996 6.57600000000002,6.33399999999995 6.57600000000002,6.10799999999995 Z "/>
</svg>
