<?xml version="1.0" encoding="utf-8"?>
<!DOCTYPE svg PUBLIC "-//W3C//DTD SVG 1.1//EN" "http://www.w3.org/Graphics/SVG/1.1/DTD/svg11.dtd">
<svg version="1.1" baseProfile="full"
 xmlns="http://www.w3.org/2000/svg"
 xmlns:xlink="http://www.w3.org/1999/xlink"
 xmlns:ev="http://www.w3.org/2001/xml-events" 
  height="11px" 
  width="13px" 
>
<path fill="rgb( 252, 88, 79 )"
 d="M10.556,8.43300000000002 C10.325,8.43300000000002 10.1369999999999,8.24800000000002 10.1369999999999,8.02000000000001 C10.1369999999999,7.792 10.325,7.607 10.556,7.607 C11.3309999999999,7.607 12.1600000000001,6.24600000000001 12.1600000000001,4.22200000000001 C12.1600000000001,2.221 11.3140000000001,0.827 10.556,0.827 C10.556,0.827 10.5540000000001,0.827 10.5540000000001,0.827 C9.71100000000001,0.82900000000001 8.46299999999997,2.25200000000001 8.46299999999997,4.21700000000001 C8.46299999999997,4.21700000000001 8.60200000000009,9.56800000000001 8.60200000000009,9.56800000000001 C8.60500000000002,9.703 8.54199999999992,9.83200000000002 8.43100000000004,9.91200000000001 C8.35799999999995,9.964 8.27099999999996,9.99200000000002 8.18399999999997,9.99200000000002 C8.13799999999992,9.99200000000002 8.0920000000001,9.98400000000001 8.04700000000003,9.96900000000002 C8.04700000000003,9.96900000000002 6.577,9.47 6.577,9.47 C6.577,9.47 5.00399999999991,9.97200000000001 5.00399999999991,9.97200000000001 C4.90200000000004,10.005 4.79099999999994,9.99700000000001 4.69299999999998,9.95000000000002 C4.69299999999998,9.95000000000002 3.73599999999988,9.493 3.73599999999988,9.493 C3.73599999999988,9.493 2.78099999999995,9.95000000000002 2.78099999999995,9.95000000000002 C2.72399999999993,9.977 2.66100000000006,9.99200000000002 2.59899999999993,9.99200000000002 C2.59899999999993,9.99200000000002 0.41799999999989,9.99200000000002 0.41799999999989,9.99200000000002 C0.1869999999999,9.99200000000002 0,9.80700000000002 0,9.57900000000001 C0,9.57900000000001 0,4.21300000000002 0,4.21300000000002 C0,4.21300000000002 0,4.21300000000002 0,4.21300000000002 C0,1.851 1.09500000000003,0.001 2.49299999999994,0.001 C2.49299999999994,0.001 10.5540000000001,0.001 10.5540000000001,0.001 C10.5550000000001,0.001 10.5550000000001,0 10.556,0 C10.557,0 10.557,0.001 10.558,0.001 C11.9480000000001,0.00200000000001 12.9970000000001,1.816 12.9970000000001,4.22200000000001 C12.9970000000001,6.62200000000001 11.9480000000001,8.43300000000002 10.556,8.43300000000002 ZM2.49299999999994,0.827 C1.70900000000006,0.827 0.83699999999999,2.21800000000002 0.83699999999999,4.21300000000002 C0.83699999999999,4.21300000000002 0.83699999999999,9.166 0.83699999999999,9.166 C0.83699999999999,9.166 2.50299999999993,9.166 2.50299999999993,9.166 C2.50299999999993,9.166 3.55400000000009,8.66300000000001 3.55400000000009,8.66300000000001 C3.66799999999989,8.608 3.80199999999991,8.607 3.9190000000001,8.66300000000001 C3.9190000000001,8.66300000000001 4.90599999999995,9.13400000000001 4.90599999999995,9.13400000000001 C4.90599999999995,9.13400000000001 6.45299999999997,8.64100000000002 6.45299999999997,8.64100000000002 C6.53999999999996,8.614 6.63200000000006,8.614 6.71800000000007,8.64400000000001 C6.71800000000007,8.64400000000001 7.75,8.994 7.75,8.994 C7.75,8.994 7.625,4.22800000000001 7.625,4.22800000000001 C7.625,2.80600000000001 8.19000000000005,1.58800000000002 8.92900000000009,0.827 C8.92900000000009,0.827 2.49299999999994,0.827 2.49299999999994,0.827 ZM10.3779999999999,2.297 C11.0519999999999,2.297 11.405,3.35600000000002 11.405,4.40200000000002 C11.405,5.45000000000002 11.0519999999999,6.511 10.3779999999999,6.511 C9.86899999999991,6.511 9.32199999999989,5.93800000000002 9.32199999999989,4.68000000000001 C9.32199999999989,3.209 9.72700000000009,2.297 10.3779999999999,2.297 ZM10.3430000000001,5.59100000000001 C10.443,5.38800000000001 10.568,4.97 10.568,4.40200000000002 C10.568,3.88800000000001 10.4649999999999,3.49800000000002 10.3710000000001,3.279 C10.2750000000001,3.501 10.1589999999999,3.93900000000002 10.1589999999999,4.68000000000001 C10.1589999999999,5.16900000000001 10.2619999999999,5.453 10.3430000000001,5.59100000000001 Z "/>
</svg>
