<?xml version="1.0" encoding="utf-8"?>
<!DOCTYPE svg PUBLIC "-//W3C//DTD SVG 1.1//EN" "http://www.w3.org/Graphics/SVG/1.1/DTD/svg11.dtd">
<svg version="1.1" baseProfile="full"
 xmlns="http://www.w3.org/2000/svg"
 xmlns:xlink="http://www.w3.org/1999/xlink"
 xmlns:ev="http://www.w3.org/2001/xml-events" 
  height="14px" 
  width="13px" 
>
<path fill="rgb( 252, 88, 79 )"
 d="M12.0150000000001,10.418 C11.876,11.283 11.0989999999999,11.92 10.307,11.92 C10.2560000000001,11.92 10.2060000000001,11.917 10.155,11.9119999999999 C9.78899999999999,11.874 9.452,11.8389999999999 9.18900000000008,11.8109999999999 C9.1690000000001,11.809 9.15000000000009,11.808 9.13000000000011,11.808 C8.85500000000002,11.808 8.68399999999997,12.019 8.74299999999994,12.304 C8.74299999999994,12.304 8.84500000000003,12.803 8.84500000000003,12.803 C8.90200000000004,13.078 8.69600000000014,13.302 8.38499999999999,13.302 C8.38499999999999,13.302 3.96299999999997,13.302 3.96299999999997,13.302 C3.65200000000004,13.302 3.44600000000014,13.078 3.50299999999993,12.803 C3.55999999999995,12.5269999999999 3.60599999999999,12.304 3.60599999999999,12.304 C3.66399999999999,12.019 3.49400000000014,11.808 3.21800000000007,11.808 C3.19900000000007,11.808 3.17900000000009,11.809 3.15900000000011,11.8109999999999 C3.15900000000011,11.8109999999999 2.19499999999994,11.9119999999999 2.19499999999994,11.9119999999999 C2.14400000000001,11.917 2.09400000000005,11.92 2.04300000000012,11.92 C1.25099999999998,11.92 0.47600000000011,11.283 0.33600000000001,10.418 C0.02500000000009,8.48500000000001 0,6.77800000000002 0,6.16499999999996 C0,2.75799999999992 2.7650000000001,0 6.17599999999993,0 C9.58600000000001,0 12.3510000000001,2.83100000000002 12.3510000000001,6.16499999999996 C12.3510000000001,6.77800000000002 12.326,8.48500000000001 12.0150000000001,10.418 ZM11.114,4.11399999999992 C10.8430000000001,3.47699999999998 10.4560000000001,2.90300000000002 9.96199999999999,2.40699999999993 C8.94299999999998,1.38099999999997 7.59799999999996,0.81499999999994 6.17599999999993,0.81499999999994 C4.74400000000014,0.81499999999994 3.39800000000014,1.37099999999998 2.38599999999997,2.38199999999995 C1.37400000000002,3.39199999999994 0.81700000000001,4.73500000000001 0.81700000000001,6.16499999999996 C0.81700000000001,6.94899999999996 0.85900000000015,8.52599999999995 1.14300000000003,10.288 C1.221,10.776 1.67200000000003,11.1039999999999 2.04300000000012,11.1039999999999 C2.06600000000003,11.1039999999999 2.08799999999997,11.103 2.11000000000013,11.101 C2.11000000000013,11.101 3.07400000000007,11 3.07400000000007,11 C3.12200000000007,10.995 3.17100000000005,10.992 3.21800000000007,10.992 C3.59400000000005,10.992 3.94000000000005,11.1519999999999 4.16700000000014,11.429 C4.39699999999993,11.711 4.48400000000015,12.0899999999999 4.40599999999995,12.468 C4.40599999999995,12.468 4.40200000000004,12.486 4.40200000000004,12.486 C4.40200000000004,12.486 4.72900000000004,12.486 4.72900000000004,12.486 C4.904,12.486 5.04700000000003,12.3489999999999 5.04700000000003,12.18 C5.04700000000003,12.011 5.04700000000003,11.874 5.04700000000003,11.874 C5.04700000000003,11.749 5.14800000000014,11.648 5.27400000000011,11.648 C5.39900000000011,11.648 5.5,11.749 5.5,11.874 C5.5,11.874 5.5,12.18 5.5,12.18 C5.5,12.3489999999999 5.60000000000014,12.486 5.72399999999993,12.486 C5.84699999999998,12.486 5.94700000000012,12.3489999999999 5.94700000000012,12.18 C5.94700000000012,12.011 5.94700000000012,11.874 5.94700000000012,11.874 C5.94700000000012,11.749 6.04899999999998,11.648 6.17399999999998,11.648 C6.29899999999998,11.648 6.40100000000007,11.749 6.40100000000007,11.874 C6.40100000000007,11.874 6.40100000000007,12.18 6.40100000000007,12.18 C6.40100000000007,12.3489999999999 6.50099999999998,12.486 6.62400000000002,12.486 C6.74800000000005,12.486 6.84799999999996,12.3489999999999 6.84799999999996,12.18 C6.84799999999996,12.011 6.84799999999996,11.874 6.84799999999996,11.874 C6.84799999999996,11.749 6.94900000000007,11.648 7.07500000000005,11.648 C7.20000000000005,11.648 7.30200000000013,11.749 7.30200000000013,11.874 C7.30200000000013,11.874 7.30200000000013,12.18 7.30200000000013,12.18 C7.30200000000013,12.3489999999999 7.44399999999996,12.486 7.61900000000014,12.486 C7.61900000000014,12.486 7.94600000000014,12.486 7.94600000000014,12.486 C7.94600000000014,12.486 7.94299999999998,12.468 7.94299999999998,12.468 C7.86400000000003,12.0899999999999 7.952,11.711 8.18100000000004,11.43 C8.40800000000013,11.1519999999999 8.75400000000013,10.992 9.13000000000011,10.992 C9.17800000000011,10.992 9.22600000000011,10.995 9.27400000000011,11 C9.27400000000011,11 10.24,11.101 10.24,11.101 C10.2619999999999,11.103 10.2840000000001,11.1039999999999 10.307,11.1039999999999 C10.6790000000001,11.1039999999999 11.1300000000001,10.776 11.2080000000001,10.288 C11.492,8.52599999999995 11.5340000000001,6.94899999999996 11.5340000000001,6.16499999999996 C11.5340000000001,5.45999999999992 11.393,4.76999999999998 11.114,4.11399999999992 ZM9.1880000000001,9.81099999999992 C8.33400000000006,9.81099999999992 7.16200000000003,9.00199999999995 7.16200000000003,7.78800000000001 C7.16200000000003,7.154 8.09699999999998,6.72199999999998 9.1880000000001,6.72199999999998 C10.4370000000001,6.72199999999998 10.7350000000001,7.41300000000001 10.7350000000001,8.26599999999996 C10.7350000000001,9.11900000000003 10.0420000000001,9.81099999999992 9.1880000000001,9.81099999999992 ZM6.73099999999999,10.754 C6.73099999999999,10.754 5.61699999999996,10.754 5.61699999999996,10.754 C5.22399999999993,10.754 5.06200000000013,10.476 5.25900000000001,10.136 C5.25900000000001,10.136 5.81700000000001,9.17099999999994 5.81700000000001,9.17099999999994 C6.01300000000015,8.83100000000002 6.33500000000004,8.83100000000002 6.53200000000015,9.17099999999994 C6.53200000000015,9.17099999999994 7.08899999999994,10.136 7.08899999999994,10.136 C7.28600000000006,10.476 7.125,10.754 6.73099999999999,10.754 ZM3.16000000000008,9.81099999999992 C2.30600000000004,9.81099999999992 1.61300000000006,9.11900000000003 1.61300000000006,8.26599999999996 C1.61300000000006,7.41300000000001 1.91200000000003,6.72199999999998 3.16000000000008,6.72199999999998 C4.25199999999995,6.72199999999998 5.18700000000013,7.154 5.18700000000013,7.78800000000001 C5.18700000000013,9.00199999999995 4.0150000000001,9.81099999999992 3.16000000000008,9.81099999999992 Z "/>
</svg>
