<?xml version="1.0" encoding="utf-8"?>
<!DOCTYPE svg PUBLIC "-//W3C//DTD SVG 1.1//EN" "http://www.w3.org/Graphics/SVG/1.1/DTD/svg11.dtd">
<svg version="1.1" baseProfile="full"
 xmlns="http://www.w3.org/2000/svg"
 xmlns:xlink="http://www.w3.org/1999/xlink"
 xmlns:ev="http://www.w3.org/2001/xml-events" 
  height="15px" 
  width="21px" 
>
<path fill="rgb( 220, 223, 229 )"
 d="M19.933,10.067 C19.933,10.067 19.899,11.169 19.899,11.169 C19.89,11.485 19.6560000000001,11.741 19.3770000000001,11.741 C19.3770000000001,11.741 19.029,11.741 19.029,11.741 C19.077,10.16 17.98,8.879 16.58,8.879 C15.1800000000001,8.879 14.0070000000001,10.16 13.9590000000001,11.741 C13.9590000000001,11.741 8.20900000000006,11.741 8.20900000000006,11.741 C8.23599999999999,10.821 7.87599999999998,10.003 7.29499999999996,9.48 C7.29499999999996,9.48 13.135,9.48 13.135,9.48 C13.135,9.48 13.355,2.193 13.355,2.193 C13.355,2.193 18.5940000000001,2.644 18.5940000000001,2.644 C18.5940000000001,2.644 19.649,5.863 20.025,6.997 C20.025,6.997 19.933,10.067 19.933,10.067 ZM18.211,3.641 C18.211,3.641 15.343,3.394 15.343,3.394 C15.343,3.394 15.249,6.491 15.249,6.491 C15.249,6.491 15.25,6.491 15.25,6.491 C15.25,6.491 19.276,7.065 19.276,7.065 C19.276,7.065 18.211,3.641 18.211,3.641 ZM0.06000000000006,8.859 C0.06000000000006,8.859 0.32799999999997,0 0.32799999999997,0 C0.32799999999997,0 12.379,0 12.379,0 C12.379,0 12.112,8.859 12.112,8.859 C12.112,8.859 0.06000000000006,8.859 0.06000000000006,8.859 ZM3.13900000000001,11.741 C3.13900000000001,11.741 2.54700000000003,11.741 2.54700000000003,11.741 C2.54700000000003,11.741 1.49800000000005,11.741 1.49800000000005,11.741 C1.49800000000005,11.741 0,11.135 0,11.135 C0,11.135 0.05500000000006,9.48 0.05500000000006,9.48 C0.05500000000006,9.48 4.18899999999996,9.48 4.18899999999996,9.48 C3.57600000000002,10.003 3.16700000000003,10.821 3.13900000000001,11.741 ZM5.74199999999996,9.48 C6.84799999999996,9.48 7.71400000000006,10.492 7.67700000000002,11.741 C7.63900000000001,12.989 6.71199999999999,14.001 5.60500000000002,14.001 C4.49900000000002,14.001 3.63300000000004,12.989 3.67100000000005,11.741 C3.70900000000006,10.492 4.63599999999997,9.48 5.74199999999996,9.48 ZM16.562,9.48 C17.668,9.48 18.535,10.492 18.497,11.741 C18.4590000000001,12.989 17.532,14.001 16.426,14.001 C15.3200000000001,14.001 14.4540000000001,12.989 14.491,11.741 C14.529,10.492 15.456,9.48 16.562,9.48 Z "/>
</svg>
