<?xml version="1.0" encoding="utf-8"?>
<!DOCTYPE svg PUBLIC "-//W3C//DTD SVG 1.1//EN" "http://www.w3.org/Graphics/SVG/1.1/DTD/svg11.dtd">
<svg version="1.1" baseProfile="full"
 xmlns="http://www.w3.org/2000/svg"
 xmlns:xlink="http://www.w3.org/1999/xlink"
 xmlns:ev="http://www.w3.org/2001/xml-events" 
  height="13px" 
  width="14px" 
>
<path fill="rgb( 107, 107, 107 )"
 d="M14,4.36400000000003 C14,4.36400000000003 14,12.001 14,12.001 C14,12.001 6.544,12.001 6.544,12.001 C6.544,12.001 6.545,12.001 6.545,12.001 C6.545,12.001 6.545,4.36400000000003 6.545,4.36400000000003 C6.545,4.36400000000003 9.111,3.95300000000003 9.111,3.95300000000003 C9.111,3.95300000000003 9.111,2.97200000000004 9.111,2.97200000000004 C8.312,2.709 7.767,2.18200000000002 7.767,1.57600000000002 C7.767,0.70499999999998 8.889,0 10.272,0 C11.656,0 12.778,0.70499999999998 12.778,1.57600000000002 C12.778,2.18200000000002 12.232,2.709 11.433,2.97200000000004 C11.433,2.97200000000004 11.433,3.94 11.433,3.94 C11.433,3.94 14,4.36400000000003 14,4.36400000000003 ZM0,6.21500000000003 C0,6.21500000000003 1.944,5.90500000000003 1.944,5.90500000000003 C1.944,5.90500000000003 1.944,5.16200000000003 1.944,5.16200000000003 C1.339,4.96199999999999 0.926,4.56299999999999 0.926,4.10300000000001 C0.926,3.44400000000002 1.776,2.90899999999999 2.824,2.90899999999999 C3.872,2.90899999999999 4.722,3.44400000000002 4.722,4.10300000000001 C4.722,4.56299999999999 4.309,4.96199999999999 3.704,5.16200000000003 C3.704,5.16200000000003 3.704,5.89400000000001 3.704,5.89400000000001 C3.704,5.89400000000001 5.648,6.21500000000003 5.648,6.21500000000003 C5.648,6.21500000000003 5.648,12.001 5.648,12.001 C5.648,12.001 0,12.001 0,12.001 C0,12.001 0,6.21500000000003 0,6.21500000000003 Z "/>
</svg>
