<?xml version="1.0" encoding="utf-8"?>
<!DOCTYPE svg PUBLIC "-//W3C//DTD SVG 1.1//EN" "http://www.w3.org/Graphics/SVG/1.1/DTD/svg11.dtd">
<svg version="1.1" baseProfile="full"
 xmlns="http://www.w3.org/2000/svg"
 xmlns:xlink="http://www.w3.org/1999/xlink"
 xmlns:ev="http://www.w3.org/2001/xml-events" 
  height="10px" 
  width="9px" 
>
<path fill="rgb( 107, 107, 107 )"
 d="M9,3.18899999999999 C9,3.18899999999999 8.269,1.84399999999999 8.269,1.84399999999999 C8.269,1.84399999999999 5.241,3.655 5.241,3.655 C5.241,3.655 5.241,0 5.241,0 C5.241,0 3.759,0 3.759,0 C3.759,0 3.759,3.655 3.759,3.655 C3.759,3.655 0.73,1.84399999999999 0.73,1.84399999999999 C0.73,1.84399999999999 0,3.18899999999999 0,3.18899999999999 C0,3.18899999999999 3.007,5 3.007,5 C3.007,5 0,6.81100000000001 0,6.81100000000001 C0,6.81100000000001 0.73,8.155 0.73,8.155 C0.73,8.155 3.759,6.34399999999999 3.759,6.34399999999999 C3.759,6.34399999999999 3.759,10 3.759,10 C3.759,10 5.241,10 5.241,10 C5.241,10 5.241,6.34399999999999 5.241,6.34399999999999 C5.241,6.34399999999999 8.269,8.155 8.269,8.155 C8.269,8.155 9,6.81100000000001 9,6.81100000000001 C9,6.81100000000001 5.993,5 5.993,5 C5.993,5 9,3.18899999999999 9,3.18899999999999 Z "/>
</svg>
