<?xml version="1.0" encoding="utf-8"?>
<!DOCTYPE svg PUBLIC "-//W3C//DTD SVG 1.1//EN" "http://www.w3.org/Graphics/SVG/1.1/DTD/svg11.dtd">
<svg version="1.1" baseProfile="full"
 xmlns="http://www.w3.org/2000/svg"
 xmlns:xlink="http://www.w3.org/1999/xlink"
 xmlns:ev="http://www.w3.org/2001/xml-events" 
  height="14px" 
  width="11px" 
>
<path fill="rgb( 107, 107, 107 )"
 d="M10.125,5.066 C10.125,2.268 7.858,0 5.062,0 C2.266,0 0,2.268 0,5.066 C0,6.244 0.402,7.328 1.076,8.18800000000002 C1.076,8.18800000000002 1.076,8.18800000000002 1.076,8.18800000000002 C1.076,8.18800000000002 5.062,13.95 5.062,13.95 C5.062,13.95 9.049,8.18800000000002 9.049,8.18800000000002 C9.049,8.18800000000002 9.048,8.18800000000002 9.048,8.18800000000002 C9.723,7.328 10.125,6.244 10.125,5.066 ZM5.062,7.78900000000002 C3.559,7.78900000000002 2.341,6.56999999999999 2.341,5.066 C2.341,3.56200000000001 3.559,2.34200000000001 5.062,2.34200000000001 C6.565,2.34200000000001 7.784,3.56200000000001 7.784,5.066 C7.784,6.56999999999999 6.565,7.78900000000002 5.062,7.78900000000002 Z "/>
</svg>
