<?xml version="1.0" encoding="utf-8"?>
<!DOCTYPE svg PUBLIC "-//W3C//DTD SVG 1.1//EN" "http://www.w3.org/Graphics/SVG/1.1/DTD/svg11.dtd">
<svg version="1.1" baseProfile="full"
 xmlns="http://www.w3.org/2000/svg"
 xmlns:xlink="http://www.w3.org/1999/xlink"
 xmlns:ev="http://www.w3.org/2001/xml-events" 
  height="15px" 
  width="17px" 
>
<path fill="rgb( 220, 223, 229 )"
 d="M0,7.525 C0,7.525 3.27500000000009,6.195 3.27500000000009,6.195 C3.27500000000009,6.195 8.21800000000007,8.262 8.21800000000007,8.262 C8.21800000000007,8.262 13.4010000000001,5.766 13.4010000000001,5.766 C13.4010000000001,5.766 16.6500000000001,6.874 16.6500000000001,6.874 C16.6500000000001,6.874 8.18400000000008,10.949 8.18400000000008,10.949 C8.18400000000008,10.949 0,7.525 0,7.525 ZM0,3.694 C0,3.694 8.64400000000001,0 8.64400000000001,0 C8.64400000000001,0 16.6500000000001,3.043 16.6500000000001,3.043 C16.6500000000001,3.043 8.18400000000008,7.117 8.18400000000008,7.117 C8.18400000000008,7.117 0,3.694 0,3.694 ZM8.21800000000007,12.094 C8.21800000000007,12.094 13.59,9.506 13.59,9.506 C13.59,9.506 16.6500000000001,10.55 16.6500000000001,10.55 C16.6500000000001,10.55 8.18400000000008,14.624 8.18400000000008,14.624 C8.18400000000008,14.624 0,11.2 0,11.2 C0,11.2 3.08699999999999,9.946 3.08699999999999,9.946 C3.08699999999999,9.946 8.21800000000007,12.094 8.21800000000007,12.094 Z "/>
</svg>
