<?xml version="1.0" encoding="utf-8"?>
<!DOCTYPE svg PUBLIC "-//W3C//DTD SVG 1.1//EN" "http://www.w3.org/Graphics/SVG/1.1/DTD/svg11.dtd">
<svg version="1.1" baseProfile="full"
 xmlns="http://www.w3.org/2000/svg"
 xmlns:xlink="http://www.w3.org/1999/xlink"
 xmlns:ev="http://www.w3.org/2001/xml-events" 
  height="15px" 
  width="10px" 
>
<path fill="rgb( 107, 107, 107 )"
 d="M8.598,14.247 C8.598,14.247 1.15,14.247 1.15,14.247 C0.516,14.247 0,13.766 0,13.173 C0,13.173 0,1.16899999999998 0,1.16899999999998 C0,0.62400000000002 0.437,0.17500000000001 0.999,0.10599999999999 C1.044,0.041 1.117,0 1.199,0 C1.199,0 2.19,0 2.19,0 C2.267,0 2.338,0.03899999999999 2.382,0.09500000000003 C2.382,0.09500000000003 8.598,0.09500000000003 8.598,0.09500000000003 C9.232,0.09500000000003 9.747,0.57600000000002 9.747,1.16899999999998 C9.747,1.16899999999998 9.747,13.173 9.747,13.173 C9.747,13.766 9.232,14.247 8.598,14.247 ZM4.754,12.128 C6.271,12.128 7.504,10.897 7.504,9.37700000000001 C7.504,7.85700000000003 6.271,6.625 4.754,6.625 C3.234,6.625 2.004,7.85700000000003 2.004,9.37700000000001 C2.004,10.897 3.234,12.128 4.754,12.128 ZM8.588,1.71300000000002 C8.588,1.56700000000001 8.449,1.44800000000004 8.279,1.44800000000004 C8.279,1.44800000000004 1.628,1.44800000000004 1.628,1.44800000000004 C1.459,1.44800000000004 1.323,1.56700000000001 1.323,1.71300000000002 C1.323,1.71300000000002 1.323,4.63800000000003 1.323,4.63800000000003 C1.323,4.78500000000003 1.459,4.90500000000003 1.628,4.90500000000003 C1.628,4.90500000000003 8.279,4.90500000000003 8.279,4.90500000000003 C8.449,4.90500000000003 8.588,4.78500000000003 8.588,4.63800000000003 C8.588,4.63800000000003 8.588,1.71300000000002 8.588,1.71300000000002 ZM4.779,8.21600000000001 C5.406,8.21600000000001 5.914,8.72300000000001 5.914,9.35000000000002 C5.914,9.97800000000001 5.406,10.484 4.779,10.484 C4.153,10.484 3.646,9.97800000000001 3.646,9.35000000000002 C3.646,8.72300000000001 4.153,8.21600000000001 4.779,8.21600000000001 Z "/>
</svg>
