<?xml version="1.0" encoding="utf-8"?>
<!DOCTYPE svg PUBLIC "-//W3C//DTD SVG 1.1//EN" "http://www.w3.org/Graphics/SVG/1.1/DTD/svg11.dtd">
<svg version="1.1" baseProfile="full"
 xmlns="http://www.w3.org/2000/svg"
 xmlns:xlink="http://www.w3.org/1999/xlink"
 xmlns:ev="http://www.w3.org/2001/xml-events" 
  height="15px" 
  width="15px" 
>
<path fill="rgb( 220, 223, 229 )"
 d="M13.507,14.456 C13.069,14.389 12.742,14.253 12.512,14.051 C12.512,14.051 12.82,12.934 12.82,12.934 C12.82,12.934 14.019,12.533 14.019,12.533 C14.019,12.533 14.545,14.109 14.545,14.109 C14.545,14.109 13.507,14.456 13.507,14.456 ZM11.747,5.67 C11.747,5.67 12.057,4.553 12.057,4.553 C12.057,4.553 13.254,4.15 13.254,4.15 C13.254,4.15 13.78,5.729 13.78,5.729 C13.78,5.729 12.744,6.076 12.744,6.076 C12.304,6.008 11.977,5.871 11.747,5.67 ZM13.628,10.245 C13.675,10.381 13.666,10.524 13.613,10.672 C13.555,10.821 13.464,10.972 13.342,11.119 C13.217,11.265 13.067,11.403 12.884,11.52 C12.706,11.636 12.517,11.727 12.324,11.791 C12.324,11.791 10.646,12.356 10.646,12.356 C10.579,12.199 10.263,11.886 9.69600000000003,11.421 C9.16300000000001,10.94 8.88799999999998,10.687 8.87799999999999,10.657 C8.75099999999998,10.274 8.83199999999999,9.747 9.11399999999998,9.077 C9.404,8.376 9.75,7.833 10.169,7.462 C10.169,7.462 10.3,7.419 10.3,7.419 C11.185,7.121 11.926,7.309 12.528,7.98 C12.897,8.398 13.265,9.152 13.628,10.245 ZM9.358,4.655 C9.26799999999997,4.685 8.93299999999999,4.827 8.34399999999999,5.083 C8.34399999999999,5.083 7.822,5.112 7.822,5.112 C7.822,5.112 7.51900000000001,4.827 7.51900000000001,4.827 C7.34300000000002,4.646 7.23099999999999,4.489 7.18400000000003,4.344 C7.00799999999998,3.81 6.95600000000002,3.276 7.03300000000002,2.745 C7.11099999999999,2.215 7.31099999999998,1.894 7.63099999999997,1.785 C7.85700000000003,1.874 8.08199999999999,1.958 8.30599999999998,2.035 C8.76999999999998,2.182 9.02499999999998,2.241 9.07900000000001,2.223 C9.07900000000001,2.223 9.07100000000003,2.194 9.07100000000003,2.194 C9.35599999999999,2.099 9.56700000000001,2.268 9.70600000000002,2.693 C9.83300000000003,3.068 9.86099999999999,3.452 9.78800000000001,3.857 C9.71499999999998,4.258 9.57100000000003,4.525 9.358,4.655 ZM8.50799999999998,7.738 C8.50799999999998,7.738 7.47199999999998,8.088 7.47199999999998,8.088 C7.03399999999999,8.023 6.70499999999998,7.882 6.47699999999998,7.682 C6.47699999999998,7.682 6.78500000000003,6.565 6.78500000000003,6.565 C6.78500000000003,6.565 7.98399999999998,6.164 7.98399999999998,6.164 C7.98399999999998,6.164 8.50799999999998,7.738 8.50799999999998,7.738 ZM6.59500000000003,10.464 C6.39100000000002,10.14 6.82299999999998,10.795 6.59500000000003,10.464 ZM8.31799999999998,12.061 C8.31799999999998,12.061 8.71199999999999,13.324 8.71199999999999,13.324 C8.71199999999999,13.324 10,14.691 10,14.691 C10,14.691 0,14.691 0,14.691 C0,14.691 0,4.691 0,4.691 C0,4.691 1.55099999999999,3.931 1.55099999999999,3.931 C1.55099999999999,3.931 1.71600000000001,6.893 1.71600000000001,6.893 C1.71600000000001,6.893 4.666,8.044 4.666,8.044 C4.666,8.044 4.83100000000002,10.347 4.83100000000002,10.347 C5.08499999999998,10.7 6.37200000000001,10.135 6.59500000000003,10.464 C6.30700000000002,11.828 8.31799999999998,12.061 8.31799999999998,12.061 ZM5.36900000000003,4.448 C5.36900000000003,4.448 4.43599999999998,4.76 4.43599999999998,4.76 C4.43599999999998,4.76 3.81799999999998,4.047 3.81799999999998,4.047 C3.697,3.693 3.85199999999998,3.355 4.27300000000002,3.03 C4.27300000000002,3.03 5.50799999999998,3.452 5.50799999999998,3.452 C5.62,3.59 5.68700000000001,3.717 5.721,3.822 C5.822,4.122 5.70600000000002,4.336 5.36900000000003,4.448 ZM3.39699999999999,1.891 C3.39699999999999,1.891 3.34699999999998,0.423 3.34699999999998,0.423 C3.53399999999999,0.261 3.702,0.154 3.863,0.1 C4.16800000000001,0 4.44900000000001,0.022 4.72199999999998,0.154 C4.99700000000001,0.291 5.16699999999997,0.468 5.24000000000001,0.679 C5.32600000000002,0.945 5.18599999999998,1.29 4.815,1.714 C4.815,1.714 3.39699999999999,1.891 3.39699999999999,1.891 Z "/>
</svg>
