<?xml version="1.0" encoding="utf-8"?>
<!DOCTYPE svg PUBLIC "-//W3C//DTD SVG 1.1//EN" "http://www.w3.org/Graphics/SVG/1.1/DTD/svg11.dtd">
<svg version="1.1" baseProfile="full"
 xmlns="http://www.w3.org/2000/svg"
 xmlns:xlink="http://www.w3.org/1999/xlink"
 xmlns:ev="http://www.w3.org/2001/xml-events" 
  height="13px" 
  width="10px" 
>
<path fill="rgb( 255, 255, 255 )"
 d="M9.99700000000001,9.89099999999999 C9.64299999999997,11.094 8.60000000000002,11.976 7.35399999999999,11.999 C5.79599999999999,12.028 4.51100000000002,10.704 4.483,9.041 C4.45600000000002,7.37899999999999 5.697,6.00800000000001 7.255,5.97900000000001 C7.87599999999998,5.96700000000001 8.44999999999999,6.23500000000001 8.91500000000002,6.59700000000001 C8.91500000000002,6.59700000000001 7.30500000000001,8.989 7.30500000000001,8.989 C7.30500000000001,8.989 9.99700000000001,9.89099999999999 9.99700000000001,9.89099999999999 ZM8.06200000000001,4.30099999999999 C8.06200000000001,4.30099999999999 4.83699999999999,4.30099999999999 4.83699999999999,4.30099999999999 C4.83699999999999,4.30099999999999 4.83699999999999,0.86099999999999 4.83699999999999,0.86099999999999 C4.83699999999999,0.86099999999999 0.80599999999998,0.86099999999999 0.80599999999998,0.86099999999999 C0.80599999999998,0.86099999999999 0.80599999999998,10.322 0.80599999999998,10.322 C0.80599999999998,10.322 3.88900000000001,10.322 3.88900000000001,10.322 C3.976,10.633 4.108,10.923 4.27800000000002,11.182 C4.27800000000002,11.182 0,11.182 0,11.182 C0,11.182 0,0 0,0 C0,0 5.84500000000003,0 5.84500000000003,0 C5.84500000000003,0 8.868,3.226 8.868,3.226 C8.868,3.226 8.868,5.90000000000001 8.868,5.90000000000001 C8.868,5.90000000000001 8.06200000000001,5.45699999999999 8.06200000000001,5.45699999999999 C8.06200000000001,5.45699999999999 8.06200000000001,4.30099999999999 8.06200000000001,4.30099999999999 ZM5.64299999999997,1.07599999999999 C5.64299999999997,1.07599999999999 5.64299999999997,3.441 5.64299999999997,3.441 C5.64299999999997,3.441 7.86000000000001,3.441 7.86000000000001,3.441 C7.86000000000001,3.441 5.64299999999997,1.07599999999999 5.64299999999997,1.07599999999999 ZM1.613,6.02099999999999 C1.613,6.02099999999999 4.43400000000003,6.02099999999999 4.43400000000003,6.02099999999999 C4.43400000000003,6.02099999999999 4.43400000000003,6.88200000000001 4.43400000000003,6.88200000000001 C4.43400000000003,6.88200000000001 1.613,6.88200000000001 1.613,6.88200000000001 C1.613,6.88200000000001 1.613,6.02099999999999 1.613,6.02099999999999 ZM1.613,9.46199999999999 C1.613,9.46199999999999 1.613,8.602 1.613,8.602 C1.613,8.602 3.62799999999999,8.602 3.62799999999999,8.602 C3.62799999999999,8.602 3.62799999999999,9.46199999999999 3.62799999999999,9.46199999999999 C3.62799999999999,9.46199999999999 1.613,9.46199999999999 1.613,9.46199999999999 ZM1.613,7.31200000000001 C1.613,7.31200000000001 4.03100000000001,7.31200000000001 4.03100000000001,7.31200000000001 C4.03100000000001,7.31200000000001 4.03100000000001,8.172 4.03100000000001,8.172 C4.03100000000001,8.172 1.613,8.172 1.613,8.172 C1.613,8.172 1.613,7.31200000000001 1.613,7.31200000000001 Z "/>
</svg>
