<?xml version="1.0" encoding="utf-8"?>
<!DOCTYPE svg PUBLIC "-//W3C//DTD SVG 1.1//EN" "http://www.w3.org/Graphics/SVG/1.1/DTD/svg11.dtd">
<svg version="1.1" baseProfile="full"
 xmlns="http://www.w3.org/2000/svg"
 xmlns:xlink="http://www.w3.org/1999/xlink"
 xmlns:ev="http://www.w3.org/2001/xml-events" 
  height="14px" 
  width="15px" 
>
<path fill="rgb( 220, 223, 229 )"
 d="M7.48799999999994,13.998 C7.48799999999994,13.998 7.48500000000001,13.998 7.48500000000001,13.998 C7.48500000000001,13.998 0,13.998 0,13.998 C0,13.998 0.17600000000004,13.178 0.43100000000004,12.868 C0.76599999999996,12.46 3.25699999999995,12.351 3.625,11.848 C3.75400000000002,11.672 4.03899999999999,11.095 4.37199999999996,9.11 C4.37199999999996,9.11 10.601,9.11 10.601,9.11 C10.934,11.094 11.2189999999999,11.672 11.348,11.848 C11.716,12.351 14.207,12.46 14.542,12.868 C14.7959999999999,13.178 14.973,13.998 14.973,13.998 C14.973,13.998 7.48799999999994,13.998 7.48799999999994,13.998 ZM4.83299999999997,6.28 C4.83299999999997,6.28 10.14,6.28 10.14,6.28 C10.196,6.629 10.251,7.442 10.307,7.784 C10.307,7.784 4.66599999999994,7.784 4.66599999999994,7.784 C4.721,7.442 4.77700000000004,6.629 4.83299999999997,6.28 ZM5.94100000000003,0.654 C5.94399999999996,0.628 5.94799999999998,0.601 5.95100000000002,0.577 C6.01099999999997,0.192 6.74900000000002,0 7.48599999999999,0.001 C8.22400000000005,0 8.96199999999999,0.192 9.02099999999996,0.577 C9.02499999999998,0.601 9.02800000000002,0.628 9.03200000000004,0.654 C9.22199999999998,1.787 9.52700000000004,2.843 9.85799999999995,4.954 C9.85799999999995,4.954 5.11500000000001,4.954 5.11500000000001,4.954 C5.44499999999994,2.843 5.75099999999998,1.786 5.94100000000003,0.654 ZM9.85799999999995,4.954 C9.85799999999995,4.954 9.85799999999995,4.954 9.85799999999995,4.954 C9.85799999999995,4.954 9.85799999999995,4.954 9.85799999999995,4.954 C9.85799999999995,4.954 9.85799999999995,4.954 9.85799999999995,4.954 Z "/>
</svg>
