<?xml version="1.0" encoding="utf-8"?>
<!DOCTYPE svg PUBLIC "-//W3C//DTD SVG 1.1//EN" "http://www.w3.org/Graphics/SVG/1.1/DTD/svg11.dtd">
<svg version="1.1" baseProfile="full"
 xmlns="http://www.w3.org/2000/svg"
 xmlns:xlink="http://www.w3.org/1999/xlink"
 xmlns:ev="http://www.w3.org/2001/xml-events" 
  height="15px" 
  width="12px" 
>
<path fill="rgb( 136, 198, 1 )"
 d="M10.1900000000001,11.099 C10.1900000000001,11.099 9.09500000000003,10.136 9.09500000000003,10.136 C9.75600000000009,9.37800000000004 10.1570000000002,8.38800000000003 10.1570000000002,7.30600000000004 C10.1570000000002,4.91800000000001 8.21000000000004,2.983 5.8090000000002,2.983 C5.78899999999999,2.983 5.76900000000001,2.983 5.74900000000002,2.983 C5.74900000000002,2.983 5.74900000000002,4.53900000000004 5.74900000000002,4.53900000000004 C5.74900000000002,4.53900000000004 3.4670000000001,2.26900000000001 3.4670000000001,2.26900000000001 C3.4670000000001,2.26900000000001 5.74900000000002,0 5.74900000000002,0 C5.74900000000002,0 5.74900000000002,1.53000000000003 5.74900000000002,1.53000000000003 C5.76900000000001,1.52900000000005 5.78899999999999,1.52900000000005 5.8090000000002,1.52900000000005 C9.01800000000003,1.52900000000005 11.6190000000001,4.11500000000001 11.6190000000001,7.30600000000004 C11.6190000000001,8.75700000000001 11.0800000000002,10.084 10.1900000000001,11.099 ZM5.74900000000002,11.627 C5.74900000000002,11.627 5.74900000000002,10.191 5.74900000000002,10.191 C5.74900000000002,10.191 8.03100000000018,12.461 8.03100000000018,12.461 C8.03100000000018,12.461 5.74900000000002,14.73 5.74900000000002,14.73 C5.74900000000002,14.73 5.74900000000002,13.081 5.74900000000002,13.081 C2.56900000000019,13.049 0,10.476 0,7.30600000000004 C0,5.91500000000002 0.49500000000012,4.63800000000003 1.31900000000019,3.64100000000002 C1.31900000000019,3.64100000000002 2.46600000000012,4.54300000000001 2.46600000000012,4.54300000000001 C1.83900000000017,5.29200000000003 1.46199999999999,6.25500000000005 1.46199999999999,7.30600000000004 C1.46199999999999,9.673 3.3760000000002,11.595 5.74900000000002,11.627 Z "/>
</svg>
