<?xml version="1.0" encoding="utf-8"?>
<!DOCTYPE svg PUBLIC "-//W3C//DTD SVG 1.1//EN" "http://www.w3.org/Graphics/SVG/1.1/DTD/svg11.dtd">
<svg version="1.1" baseProfile="full"
 xmlns="http://www.w3.org/2000/svg"
 xmlns:xlink="http://www.w3.org/1999/xlink"
 xmlns:ev="http://www.w3.org/2001/xml-events" 
  height="6px" 
  width="13px" 
>
<path fill="rgb( 255, 149, 0 )"
 d="M11.915,3.99900000000002 C11.915,3.99900000000002 11.915,5.99700000000007 11.915,5.99700000000007 C11.915,5.99700000000007 0,5.99700000000007 0,5.99700000000007 C0,5.99700000000007 0,0 0,0 C0,0 11.915,0 11.915,0 C11.915,0 11.915,1.99900000000002 11.915,1.99900000000002 C11.915,1.99900000000002 12.998,1.99900000000002 12.998,1.99900000000002 C12.998,1.99900000000002 12.998,3.99900000000002 12.998,3.99900000000002 C12.998,3.99900000000002 11.915,3.99900000000002 11.915,3.99900000000002 ZM10.8320000000001,1 C10.8320000000001,1 1.08300000000008,1 1.08300000000008,1 C1.08300000000008,1 1.08300000000008,4.99800000000005 1.08300000000008,4.99800000000005 C1.08300000000008,4.99800000000005 10.8320000000001,4.99800000000005 10.8320000000001,4.99800000000005 C10.8320000000001,4.99800000000005 10.8320000000001,1 10.8320000000001,1 ZM4.87400000000002,4.49800000000005 C4.87400000000002,4.49800000000005 1.62400000000002,4.49800000000005 1.62400000000002,4.49800000000005 C1.62400000000002,4.49800000000005 1.62400000000002,1.49900000000002 1.62400000000002,1.49900000000002 C1.62400000000002,1.49900000000002 3.24900000000002,1.49900000000002 3.24900000000002,1.49900000000002 C3.24900000000002,1.49900000000002 4.87400000000002,4.49800000000005 4.87400000000002,4.49800000000005 Z "/>
</svg>
