<?xml version="1.0" encoding="utf-8"?>
<!DOCTYPE svg PUBLIC "-//W3C//DTD SVG 1.1//EN" "http://www.w3.org/Graphics/SVG/1.1/DTD/svg11.dtd">
<svg version="1.1" baseProfile="full"
 xmlns="http://www.w3.org/2000/svg"
 xmlns:xlink="http://www.w3.org/1999/xlink"
 xmlns:ev="http://www.w3.org/2001/xml-events" 
  height="12px" 
  width="16px" 
>
<path fill="rgb( 220, 223, 229 )"
 d="M13.348,6.396 C13.253,6.111 13.138,5.833 13.003,5.568 C13.003,5.568 11.368,6.305 11.368,6.305 C11.512,6.568 11.628,6.845 11.712,7.133 C11.712,7.133 13.348,6.396 13.348,6.396 ZM4.965,5.793 C5.14599999999999,5.558 5.352,5.344 5.578,5.155 C5.578,5.155 4.31800000000001,3.843 4.31800000000001,3.843 C4.09899999999999,4.039 3.89400000000001,4.253 3.70599999999999,4.481 C3.70599999999999,4.481 4.965,5.793 4.965,5.793 ZM6.108,4.784 C6.36099999999999,4.637 6.62899999999999,4.519 6.90700000000001,4.435 C6.90700000000001,4.435 6.21799999999999,2.722 6.21799999999999,2.722 C5.94399999999999,2.817 5.67599999999999,2.934 5.41900000000001,3.072 C5.41900000000001,3.072 6.108,4.784 6.108,4.784 ZM4.26900000000001,7.194 C4.34899999999999,6.904 4.46100000000001,6.624 4.601,6.36 C4.601,6.36 2.95500000000001,5.65 2.95500000000001,5.65 C2.82400000000001,5.918 2.71199999999999,6.198 2.62299999999999,6.483 C2.62299999999999,6.483 4.26900000000001,7.194 4.26900000000001,7.194 ZM10.559,3.061 C10.301,2.924 10.033,2.808 9.75899999999999,2.715 C9.75899999999999,2.715 9.077,4.43 9.077,4.43 C9.35499999999999,4.514 9.62299999999999,4.63 9.87700000000001,4.776 C9.87700000000001,4.776 10.559,3.061 10.559,3.061 ZM12.293,4.481 C12.105,4.253 11.899,4.039 11.68,3.843 C11.68,3.843 10.42,5.155 10.42,5.155 C10.647,5.344 10.852,5.558 11.033,5.793 C11.033,5.793 12.293,4.481 12.293,4.481 ZM8.43199999999999,2.441 C8.286,2.43 8.14099999999999,2.424 7.999,2.424 C7.858,2.424 7.71199999999999,2.43 7.566,2.441 C7.566,2.441 7.566,4.297 7.566,4.297 C7.71000000000001,4.28 7.85499999999999,4.272 7.999,4.272 C8.143,4.272 8.28800000000001,4.28 8.43199999999999,4.297 C8.43199999999999,4.297 8.43199999999999,2.441 8.43199999999999,2.441 ZM8,11.63 C7.137,11.63 6.43799999999999,10.93 6.43799999999999,10.068 C6.43799999999999,9.479 6.76400000000001,8.966 7.245,8.7 C7.245,8.7 8,5.161 8,5.161 C8,5.161 8.755,8.7 8.755,8.7 C9.23599999999999,8.966 9.56200000000001,9.479 9.56200000000001,10.068 C9.56200000000001,10.93 8.863,11.63 8,11.63 ZM1.07300000000001,12 C0.39099999999999,10.823 0,9.456 0,8.001 C0,3.589 3.589,0 8,0 C12.411,0 16,3.589 16,8.001 C16,9.456 15.609,10.823 14.927,12 C14.927,12 13.578,11.221 13.578,11.221 C14.127,10.273 14.442,9.173 14.442,8.001 C14.442,4.448 11.552,1.558 8,1.558 C4.44800000000001,1.558 1.55799999999999,4.448 1.55799999999999,8.001 C1.55799999999999,9.173 1.87299999999999,10.273 2.422,11.221 C2.422,11.221 1.07300000000001,12 1.07300000000001,12 Z "/>
</svg>
