<?xml version="1.0" encoding="utf-8"?>
<!DOCTYPE svg PUBLIC "-//W3C//DTD SVG 1.1//EN" "http://www.w3.org/Graphics/SVG/1.1/DTD/svg11.dtd">
<svg version="1.1" baseProfile="full"
 xmlns="http://www.w3.org/2000/svg"
 xmlns:xlink="http://www.w3.org/1999/xlink"
 xmlns:ev="http://www.w3.org/2001/xml-events" 
  height="14px" 
  width="15px" 
>
<path fill="rgb( 107, 107, 107 )"
 d="M14.806,2.90600000000001 C14.806,2.90600000000001 12.655,1.63400000000001 12.655,1.63400000000001 C12.54,1.56799999999998 12.367,1.50200000000001 12.175,1.45299999999997 C12.003,1.40300000000002 11.81,1.37 11.657,1.37 C11.657,1.37 7.067,1.37 7.067,1.37 C7.067,1.37 7.067,0.31400000000002 7.067,0.31400000000002 C7.067,0.149 6.913,0 6.702,0 C6.702,0 5.895,0 5.895,0 C5.703,0 5.531,0.149 5.531,0.31400000000002 C5.531,0.31400000000002 5.531,3.76400000000001 5.531,3.76400000000001 C5.531,3.76400000000001 3.303,3.76400000000001 3.303,3.76400000000001 C3.149,3.76400000000001 2.976,3.79700000000003 2.784,3.84699999999998 C2.611,3.89600000000002 2.439,3.96199999999999 2.323,4.02800000000002 C2.323,4.02800000000002 0.173,5.28300000000002 0.173,5.28300000000002 C0.057,5.34899999999999 0,5.44799999999998 0,5.54700000000003 C0,5.64600000000002 0.057,5.72800000000001 0.173,5.81099999999998 C0.173,5.81099999999998 2.323,7.08199999999999 2.323,7.08199999999999 C2.439,7.14800000000002 2.611,7.214 2.784,7.26400000000001 C2.957,7.31299999999999 3.149,7.346 3.303,7.346 C3.303,7.346 5.531,7.346 5.531,7.346 C5.531,7.346 5.531,13.685 5.531,13.685 C5.531,13.85 5.684,13.999 5.895,13.999 C5.895,13.999 6.702,13.999 6.702,13.999 C6.894,13.999 7.067,13.867 7.067,13.685 C7.067,13.685 7.067,4.95299999999997 7.067,4.95299999999997 C7.067,4.95299999999997 11.676,4.95299999999997 11.676,4.95299999999997 C11.83,4.95299999999997 12.003,4.92000000000002 12.195,4.87 C12.367,4.82100000000003 12.54,4.75400000000002 12.675,4.68799999999999 C12.675,4.68799999999999 14.826,3.41699999999997 14.826,3.41699999999997 C14.941,3.351 14.998,3.25200000000001 14.998,3.15300000000002 C14.979,3.07100000000003 14.922,2.988 14.806,2.90600000000001 Z "/>
</svg>
