<?xml version="1.0" encoding="utf-8"?>
<!DOCTYPE svg PUBLIC "-//W3C//DTD SVG 1.1//EN" "http://www.w3.org/Graphics/SVG/1.1/DTD/svg11.dtd">
<svg version="1.1" baseProfile="full"
 xmlns="http://www.w3.org/2000/svg"
 xmlns:xlink="http://www.w3.org/1999/xlink"
 xmlns:ev="http://www.w3.org/2001/xml-events" 
  height="15px" 
  width="12px" 
>
<path fill="rgb( 39, 185, 242 )"
 d="M7.892,14.055 C7.892,14.055 3.88799999999998,14.055 3.88799999999998,14.055 C1.74099999999999,14.055 0,14.06 0,11.915 C0,9.954 1.45499999999998,8.333 3.346,8.07 C3.34899999999999,8.069 3.35199999999998,8.069 3.35499999999996,8.069 C3.41300000000001,8.061 3.471,8.054 3.52999999999997,8.049 C3.52999999999997,8.049 3.52999999999997,8.049 3.52999999999997,8.049 C3.46799999999996,8.054 3.40699999999998,8.062 3.346,8.07 C3.34899999999999,8.069 3.35300000000001,8.069 3.35599999999999,8.069 C3.41300000000001,8.061 3.471,8.054 3.52999999999997,8.049 C3.52999999999997,8.054 3.53100000000001,8.06 3.53100000000001,8.065 C3.53199999999998,8.082 3.53499999999997,8.097 3.53699999999998,8.113 C3.54699999999997,8.204 3.57400000000001,8.293 3.61699999999996,8.377 C3.61699999999996,8.377 3.61699999999996,8.377 3.61699999999996,8.377 C3.61699999999996,8.377 3.61699999999996,8.378 3.61699999999996,8.378 C3.90199999999999,9.096 4.827,10.457 5.37099999999998,11.23 C5.37099999999998,11.23 5.483,9.625 5.483,9.625 C5.32400000000001,9.543 5.18799999999999,9.408 5.09999999999997,9.252 C5.03699999999998,9.14 4.99899999999997,9.017 4.99899999999997,8.892 C4.99899999999997,8.892 5.40499999999997,9.071 5.81899999999996,9.071 C6.233,9.071 6.63999999999999,8.892 6.63999999999999,8.892 C6.63999999999999,9.027 6.59499999999997,9.16 6.52199999999999,9.279 C6.43399999999997,9.424 6.30500000000001,9.547 6.15499999999997,9.625 C6.15499999999997,9.625 6.26400000000001,11.189 6.26400000000001,11.189 C6.84299999999996,10.437 7.77699999999999,9.178 8.11899999999997,8.456 C8.18799999999999,8.346 8.22999999999996,8.23 8.243,8.108 C8.243,8.107 8.243,8.106 8.243,8.105 C8.24399999999997,8.096 8.245,8.088 8.24700000000001,8.079 C8.24599999999998,8.088 8.245,8.098 8.243,8.108 C8.243,8.107 8.243,8.106 8.243,8.105 C8.24599999999998,8.092 8.24700000000001,8.08 8.24799999999999,8.068 C8.24799999999999,8.067 8.24799999999999,8.066 8.24799999999999,8.064 C8.24899999999997,8.059 8.25,8.054 8.25,8.049 C8.37399999999997,8.06 8.49599999999998,8.077 8.61599999999999,8.099 C10.417,8.438 11.78,10.018 11.78,11.915 C11.78,14.06 10.039,14.055 7.892,14.055 ZM9.98500000000001,11.725 C9.98500000000001,11.591 9.87599999999998,11.483 9.74199999999996,11.483 C9.74199999999996,11.483 8.08999999999998,11.483 8.08999999999998,11.483 C7.95599999999996,11.483 7.84699999999998,11.591 7.84699999999998,11.725 C7.84699999999998,11.725 7.84699999999998,12.744 7.84699999999998,12.744 C7.84699999999998,12.878 7.95599999999996,12.987 8.08999999999998,12.987 C8.08999999999998,12.987 9.74199999999996,12.987 9.74199999999996,12.987 C9.87599999999998,12.987 9.98500000000001,12.878 9.98500000000001,12.744 C9.98500000000001,12.744 9.98500000000001,12.744 9.98500000000001,12.744 C9.98500000000001,12.744 9.98500000000001,11.725 9.98500000000001,11.725 ZM9.61599999999999,12.634 C9.61599999999999,12.634 9.18700000000001,12.634 9.18700000000001,12.634 C9.14499999999998,12.634 9.11000000000001,12.6 9.11000000000001,12.557 C9.11000000000001,12.557 9.11000000000001,12.557 9.11000000000001,12.557 C9.11000000000001,12.557 9.11000000000001,12.557 9.11000000000001,12.557 C9.11000000000001,12.515 9.14499999999998,12.48 9.18700000000001,12.48 C9.18700000000001,12.48 9.61599999999999,12.48 9.61599999999999,12.48 C9.65899999999999,12.48 9.69299999999998,12.515 9.69299999999998,12.557 C9.69299999999998,12.557 9.69299999999998,12.557 9.69299999999998,12.557 C9.69299999999998,12.557 9.69299999999998,12.557 9.69299999999998,12.557 C9.69299999999998,12.6 9.65899999999999,12.634 9.61599999999999,12.634 ZM9.18700000000001,12.196 C9.14499999999998,12.196 9.11000000000001,12.162 9.11000000000001,12.12 C9.11000000000001,12.077 9.14499999999998,12.043 9.18700000000001,12.043 C9.18700000000001,12.043 9.61599999999999,12.043 9.61599999999999,12.043 C9.65899999999999,12.043 9.69299999999998,12.077 9.69299999999998,12.12 C9.69299999999998,12.162 9.65899999999999,12.196 9.61599999999999,12.196 C9.61599999999999,12.196 9.18700000000001,12.196 9.18700000000001,12.196 ZM8.54300000000001,12.595 C8.54300000000001,12.595 8.31999999999999,12.595 8.31999999999999,12.595 C8.20099999999997,12.595 8.10399999999999,12.596 8.10399999999999,12.476 C8.10399999999999,12.422 8.12399999999997,12.372 8.15799999999996,12.334 C8.19099999999997,12.296 8.238,12.27 8.28999999999996,12.262 C8.29399999999998,12.262 8.29699999999997,12.261 8.30000000000001,12.261 C8.30000000000001,12.261 8.30000000000001,12.262 8.30099999999999,12.262 C8.30099999999999,12.263 8.30099999999999,12.264 8.30099999999999,12.265 C8.30199999999996,12.27 8.303,12.275 8.30500000000001,12.279 C8.32099999999997,12.319 8.37299999999999,12.395 8.40299999999996,12.438 C8.40299999999996,12.438 8.40899999999999,12.349 8.40899999999999,12.349 C8.39999999999998,12.344 8.39299999999997,12.337 8.38799999999998,12.328 C8.38400000000001,12.322 8.38200000000001,12.315 8.38200000000001,12.308 C8.38200000000001,12.308 8.40499999999997,12.318 8.428,12.318 C8.45099999999997,12.318 8.47399999999999,12.308 8.47399999999999,12.308 C8.47399999999999,12.308 8.47300000000001,12.308 8.47300000000001,12.308 C8.47300000000001,12.308 8.47399999999999,12.308 8.47399999999999,12.308 C8.47399999999999,12.315 8.471,12.323 8.46699999999998,12.33 C8.46199999999999,12.338 8.45499999999998,12.345 8.447,12.349 C8.447,12.349 8.45299999999997,12.436 8.45299999999997,12.436 C8.48500000000001,12.394 8.53699999999998,12.324 8.55599999999998,12.284 C8.56,12.278 8.56200000000001,12.271 8.56299999999999,12.264 C8.56299999999999,12.263 8.56299999999999,12.263 8.56299999999999,12.262 C8.56299999999999,12.262 8.56299999999999,12.261 8.56299999999999,12.261 C8.56999999999999,12.262 8.577,12.263 8.58299999999997,12.264 C8.68399999999997,12.283 8.75999999999999,12.371 8.75999999999999,12.476 C8.75999999999999,12.596 8.66300000000001,12.595 8.54300000000001,12.595 ZM8.43199999999996,12.289 C8.34800000000001,12.289 8.279,12.198 8.26900000000001,12.08 C8.26799999999997,12.078 8.26799999999997,12.076 8.26799999999997,12.075 C8.267,12.07 8.267,12.065 8.267,12.059 C8.26599999999996,12.056 8.26599999999996,12.052 8.26599999999996,12.048 C8.26599999999996,12.039 8.267,12.031 8.26799999999997,12.022 C8.27999999999997,11.938 8.34899999999999,11.874 8.43199999999996,11.874 C8.51499999999999,11.874 8.58299999999997,11.938 8.59499999999997,12.022 C8.59699999999998,12.031 8.59699999999998,12.039 8.59699999999998,12.048 C8.59699999999998,12.057 8.59699999999998,12.066 8.59499999999997,12.075 C8.58600000000001,12.195 8.517,12.289 8.43199999999996,12.289 ZM8.55399999999997,12.082 C8.56700000000001,12.053 8.52099999999996,11.981 8.52099999999996,11.981 C8.44399999999996,12.037 8.32999999999998,11.981 8.32999999999998,11.981 C8.29499999999996,11.995 8.31200000000001,12.092 8.31099999999998,12.091 C8.303,12.085 8.29499999999996,12.082 8.28800000000001,12.081 C8.298,12.184 8.358,12.263 8.43199999999996,12.263 C8.50599999999997,12.263 8.56700000000001,12.181 8.57499999999999,12.076 C8.57599999999997,12.069 8.577,12.062 8.577,12.055 C8.577,12.055 8.55399999999997,12.082 8.55399999999997,12.082 ZM8.24799999999999,8.067 C8.24799999999999,8.066 8.24799999999999,8.065 8.24799999999999,8.064 C8.24799999999999,8.063 8.24799999999999,8.062 8.24799999999999,8.061 C8.24799999999999,8.062 8.24799999999999,8.063 8.24799999999999,8.064 C8.24799999999999,8.065 8.24799999999999,8.066 8.24799999999999,8.067 ZM8.24700000000001,8.079 C8.24700000000001,8.075 8.24799999999999,8.071 8.24799999999999,8.067 C8.24799999999999,8.067 8.24799999999999,8.067 8.24799999999999,8.067 C8.24799999999999,8.071 8.24700000000001,8.075 8.24700000000001,8.079 ZM3.52999999999997,8.049 C3.52999999999997,8.049 3.52999999999997,8.049 3.52999999999997,8.049 C3.52999999999997,8.049 3.52999999999997,8.049 3.52999999999997,8.049 C3.52999999999997,8.049 3.52999999999997,8.049 3.52999999999997,8.049 ZM3.53199999999998,8.064 C3.53199999999998,8.065 3.53199999999998,8.065 3.53199999999998,8.065 C3.53100000000001,8.06 3.52999999999997,8.054 3.52999999999997,8.049 C3.52999999999997,8.049 3.52999999999997,8.049 3.52999999999997,8.049 C3.53100000000001,8.053 3.53100000000001,8.059 3.53199999999998,8.064 ZM8.25,8.049 C8.25,8.049 8.25,8.049 8.25,8.049 C8.25,8.049 8.25,8.049 8.25,8.049 C8.25,8.053 8.24899999999997,8.057 8.24799999999999,8.061 C8.24899999999997,8.057 8.25,8.053 8.25,8.049 ZM8.25,8.049 C8.25,8.049 8.25,8.049 8.25,8.049 C8.25,8.049 8.25,8.049 8.25,8.049 C8.25,8.049 8.25,8.049 8.25,8.049 ZM3.53699999999998,8.114 C3.53699999999998,8.114 3.53699999999998,8.114 3.53699999999998,8.113 C3.54699999999997,8.204 3.57499999999999,8.293 3.61699999999996,8.378 C3.61699999999996,8.378 3.61699999999996,8.377 3.61699999999996,8.377 C3.57499999999999,8.292 3.548,8.205 3.53699999999998,8.114 ZM8.94799999999998,4.161 C8.94799999999998,4.161 8.94599999999997,4.161 8.94599999999997,4.161 C8.94599999999997,4.161 8.863,4.161 8.863,4.161 C8.86399999999998,4.183 8.86500000000001,4.204 8.86500000000001,4.226 C8.86500000000001,4.387 8.85300000000001,4.546 8.82999999999998,4.701 C8.66800000000001,6.861 7.41300000000001,8.542 5.88999999999999,8.542 C4.38599999999997,8.542 3.14400000000001,6.904 2.95599999999996,4.784 C2.95400000000001,4.756 2.95099999999997,4.728 2.94900000000001,4.7 C2.93599999999998,4.608 2.92699999999996,4.515 2.92099999999999,4.421 C2.91800000000001,4.356 2.91499999999996,4.291 2.91499999999996,4.226 C2.91499999999996,4.204 2.916,4.183 2.916,4.161 C2.916,4.161 2.846,4.161 2.846,4.161 C2.846,4.161 2.84399999999999,4.161 2.84399999999999,4.161 C2.59899999999999,4.161 2.01099999999997,3.962 2.01099999999997,3.717 C2.01099999999997,3.472 2.59899999999999,3.273 2.84399999999999,3.273 C2.84399999999999,3.273 2.846,3.273 2.846,3.273 C3.00200000000001,2.196 3.666,1.143 4.63499999999999,0.614 C4.63499999999999,0.614 4.69299999999998,1.389 4.69299999999998,1.389 C4.69299999999998,1.389 4.73099999999999,1.846 4.73099999999999,1.846 C4.73099999999999,1.846 4.80899999999997,1.845 4.80899999999997,1.845 C4.80899999999997,1.845 4.77299999999997,1.327 4.77299999999997,1.327 C4.77299999999997,1.327 4.71799999999996,0.548 4.71799999999996,0.548 C4.71799999999996,0.548 4.70099999999997,0.311 4.70099999999997,0.311 C4.70099999999997,0.311 5.20799999999997,0.289 5.20799999999997,0.289 C5.20799999999997,0.289 5.20999999999998,0.345 5.20999999999998,0.345 C5.20999999999998,0.345 5.23599999999999,1.174 5.23599999999999,1.174 C5.23599999999999,1.174 5.25599999999997,1.825 5.25599999999997,1.825 C5.25599999999997,1.825 5.25700000000001,1.865 5.25700000000001,1.865 C5.25700000000001,1.865 5.29599999999999,3.109 5.29599999999999,3.109 C5.29599999999999,3.109 5.38099999999997,3.109 5.38099999999997,3.109 C5.38099999999997,3.109 5.327,1.154 5.327,1.154 C5.327,1.154 5.30399999999997,0.319 5.30399999999997,0.319 C5.30399999999997,0.319 5.29499999999996,0 5.29499999999996,0 C5.29499999999996,0 6.36399999999998,0 6.36399999999998,0 C6.36399999999998,0 6.35599999999999,0.289 6.35599999999999,0.289 C6.35599999999999,0.289 6.33299999999997,1.133 6.33299999999997,1.133 C6.33299999999997,1.133 6.279,3.109 6.279,3.109 C6.279,3.109 6.363,3.109 6.363,3.109 C6.363,3.109 6.40199999999999,1.866 6.40199999999999,1.866 C6.40199999999999,1.866 6.40299999999996,1.826 6.40299999999996,1.826 C6.40299999999996,1.826 6.42399999999998,1.149 6.42399999999998,1.149 C6.42399999999998,1.149 6.45099999999997,0.31 6.45099999999997,0.31 C6.45099999999997,0.31 6.45099999999997,0.29 6.45099999999997,0.29 C6.45099999999997,0.29 6.93899999999996,0.311 6.93899999999996,0.311 C6.93899999999996,0.311 6.92699999999996,0.475 6.92699999999996,0.475 C6.92699999999996,0.475 6.87099999999998,1.273 6.87099999999998,1.273 C6.87099999999998,1.273 6.83099999999996,1.845 6.83099999999996,1.845 C6.83099999999996,1.845 6.90899999999999,1.846 6.90899999999999,1.846 C6.90899999999999,1.846 6.95099999999997,1.333 6.95099999999997,1.333 C6.95099999999997,1.333 7.01099999999997,0.54 7.01099999999997,0.54 C8.05399999999997,1.033 8.78299999999996,2.143 8.94599999999997,3.273 C8.94599999999997,3.273 8.94799999999998,3.273 8.94799999999998,3.273 C9.19399999999996,3.273 9.78100000000001,3.472 9.78100000000001,3.717 C9.78100000000001,3.962 9.19399999999996,4.161 8.94799999999998,4.161 ZM8.50099999999998,4.341 C8.50099999999998,4.341 8.08299999999997,4.82 8.08299999999997,4.82 C8.12,4.739 8.13,4.638 8.12099999999998,4.525 C8.11199999999997,4.412 8.08299999999997,4.288 8.04399999999998,4.161 C8.04399999999998,4.161 3.65899999999999,4.161 3.65899999999999,4.161 C3.65899999999999,4.161 3.65899999999999,4.161 3.65899999999999,4.161 C3.65899999999999,4.161 3.65899999999999,4.161 3.65899999999999,4.161 C3.66199999999998,4.603 3.72899999999999,5.001 3.72899999999999,5.001 C3.72899999999999,5.001 3.66199999999998,4.603 3.65899999999999,4.161 C3.65899999999999,4.161 8.04399999999998,4.161 8.04399999999998,4.161 C8.08299999999997,4.288 8.11199999999997,4.412 8.12099999999998,4.525 C8.13,4.638 8.12,4.739 8.08299999999997,4.82 C8.08299999999997,4.82 8.08299999999997,4.82 8.08299999999997,4.82 C8.08299999999997,4.82 8.08299999999997,4.82 8.08299999999997,4.82 C8.08299999999997,4.82 8.50099999999998,4.341 8.50099999999998,4.341 C8.49899999999997,4.468 8.48899999999998,4.593 8.471,4.716 C8.32900000000001,6.612 7.22800000000001,8.087 5.88999999999999,8.087 C7.22800000000001,8.087 8.32900000000001,6.612 8.471,4.716 C8.48899999999998,4.594 8.49899999999997,4.468 8.50099999999998,4.341 C8.50099999999998,4.341 8.50099999999998,4.341 8.50099999999998,4.341 C8.50099999999998,4.341 8.50099999999998,4.341 8.50099999999998,4.341 Z "/>
</svg>
