<?xml version="1.0" encoding="utf-8"?>
<!DOCTYPE svg PUBLIC "-//W3C//DTD SVG 1.1//EN" "http://www.w3.org/Graphics/SVG/1.1/DTD/svg11.dtd">
<svg version="1.1" baseProfile="full"
 xmlns="http://www.w3.org/2000/svg"
 xmlns:xlink="http://www.w3.org/1999/xlink"
 xmlns:ev="http://www.w3.org/2001/xml-events" 
  height="13px" 
  width="13px" 
>
<path fill="rgb( 78, 95, 111 )"
 d="M8.77100000000007,0.023 C8.51400000000001,0.04400000000001 8.25300000000004,0.09900000000002 8.00600000000009,0.185 C7.99900000000002,0.18700000000001 7.9910000000001,0.18200000000002 7.98500000000001,0.185 C7.97000000000003,0.19 7.95300000000009,0.179 7.93900000000008,0.185 C7.93900000000008,0.185 7.93900000000008,0.208 7.93900000000008,0.208 C7.48100000000011,0.34900000000002 7.13800000000003,0.61600000000001 6.88100000000009,0.87800000000001 C6.88100000000009,0.87800000000001 5.51100000000008,2.28999999999999 5.51100000000008,2.28999999999999 C5.51100000000008,2.28999999999999 5.0150000000001,2.822 5.0150000000001,2.822 C5.0150000000001,2.822 6.02700000000004,3.86199999999999 6.02700000000004,3.86199999999999 C6.02700000000004,3.86199999999999 6.54500000000007,3.33100000000002 6.54500000000007,3.33100000000002 C6.54500000000007,3.33100000000002 7.89300000000003,1.91900000000001 7.89300000000003,1.91900000000001 C8.05300000000011,1.756 8.298,1.613 8.3660000000001,1.595 C8.38900000000001,1.58799999999999 8.41000000000008,1.58100000000002 8.43300000000011,1.572 C8.995,1.36199999999999 9.49900000000002,1.464 9.87200000000007,1.89600000000002 C9.89400000000001,1.91300000000001 9.91700000000003,1.929 9.94000000000005,1.94300000000001 C10.499,2.47 10.5120000000001,3.39000000000001 9.91800000000001,4.00200000000001 C9.91800000000001,4.00200000000001 8.54600000000005,5.39000000000001 8.54600000000005,5.39000000000001 C8.54600000000005,5.39000000000001 8.02900000000011,5.922 8.02900000000011,5.922 C8.02900000000011,5.922 9.04000000000008,6.96299999999999 9.04000000000008,6.96299999999999 C9.04000000000008,6.96299999999999 9.55800000000011,6.45400000000001 9.55800000000011,6.45400000000001 C9.55800000000011,6.45400000000001 10.9300000000001,5.042 10.9300000000001,5.042 C12.042,3.899 12.057,2.03399999999999 10.952,0.92400000000001 C10.932,0.904 10.9280000000001,0.875 10.9060000000001,0.85500000000002 C10.9060000000001,0.85500000000002 10.884,0.87800000000001 10.884,0.87800000000001 C10.504,0.46600000000001 10.037,0.178 9.53600000000006,0.06800000000001 C9.28100000000006,0.012 9.02700000000004,0 8.7700000000001,0.02100000000002 C8.7700000000001,0.02100000000002 8.77100000000007,0.023 8.77100000000007,0.023 ZM1.23900000000003,0.74000000000001 C1.05000000000007,0.80199999999999 0.94500000000005,1.00999999999999 1.00500000000011,1.20500000000001 C1.02300000000002,1.26599999999999 1.05800000000011,1.321 1.10400000000004,1.36500000000001 C1.10400000000004,1.36500000000001 2.54300000000001,2.845 2.54300000000001,2.845 C2.64700000000005,3.02000000000001 2.86800000000005,3.07400000000001 3.03800000000001,2.96600000000001 C3.20700000000011,2.85900000000001 3.25900000000001,2.631 3.15500000000009,2.45699999999999 C3.12600000000009,2.40800000000002 3.08600000000001,2.36600000000001 3.03800000000001,2.33600000000001 C3.03800000000001,2.33600000000001 1.59900000000005,0.85500000000002 1.59900000000005,0.85500000000002 C1.51800000000003,0.76599999999999 1.40000000000009,0.72300000000001 1.28300000000002,0.74000000000001 C1.26900000000001,0.739 1.25300000000004,0.739 1.23800000000006,0.74000000000001 C1.23800000000006,0.74000000000001 1.23900000000003,0.74000000000001 1.23900000000003,0.74000000000001 ZM4.11700000000008,0.74000000000001 C3.96300000000008,0.792 3.86200000000008,0.94300000000001 3.87,1.11000000000001 C3.87,1.11000000000001 3.87,2.59100000000001 3.87,2.59100000000001 C3.87,2.79500000000002 4.03000000000009,2.96100000000001 4.22900000000004,2.96100000000001 C4.42800000000011,2.96100000000001 4.58900000000006,2.79500000000002 4.58900000000006,2.59100000000001 C4.58900000000006,2.59100000000001 4.58900000000006,1.11000000000001 4.58900000000006,1.11000000000001 C4.5920000000001,0.90600000000001 4.43400000000008,0.73699999999999 4.2360000000001,0.733 C4.21100000000001,0.733 4.18600000000004,0.73500000000001 4.16200000000003,0.74000000000001 C4.14700000000005,0.739 4.13100000000009,0.739 4.1160000000001,0.74000000000001 C4.1160000000001,0.74000000000001 4.11700000000008,0.74000000000001 4.11700000000008,0.74000000000001 ZM1.23900000000003,3.70099999999999 C1.04000000000008,3.733 0.90400000000011,3.92500000000001 0.93500000000006,4.12899999999999 C0.9670000000001,4.334 1.15200000000004,4.47300000000001 1.351,4.44200000000001 C1.351,4.44200000000001 2.79000000000008,4.44200000000001 2.79000000000008,4.44200000000001 C2.98900000000003,4.44200000000001 3.15000000000009,4.27600000000001 3.15000000000009,4.071 C3.15000000000009,3.86700000000002 2.98900000000003,3.70099999999999 2.79000000000008,3.70099999999999 C2.79000000000008,3.70099999999999 1.351,3.70099999999999 1.351,3.70099999999999 C1.32900000000006,3.69900000000001 1.30600000000004,3.69900000000001 1.28300000000002,3.70099999999999 C1.26900000000001,3.70000000000002 1.25300000000004,3.70000000000002 1.23800000000006,3.70099999999999 C1.23800000000006,3.70099999999999 1.23900000000003,3.70099999999999 1.23900000000003,3.70099999999999 ZM3.08300000000008,4.81200000000001 C3.08300000000008,4.81200000000001 2.56600000000003,5.321 2.56600000000003,5.321 C2.56600000000003,5.321 1.12700000000007,6.80199999999999 1.12700000000007,6.80199999999999 C0.0150000000001,7.946 0,9.81 1.10500000000002,10.92 C1.12400000000002,10.939 1.12800000000004,10.97 1.15000000000009,10.99 C1.15000000000009,10.99 1.17200000000003,10.967 1.17200000000003,10.967 C1.93500000000006,11.793 3.06700000000001,12.001 4.05000000000007,11.662 C4.05300000000011,11.656 4.06600000000003,11.663 4.072,11.662 C4.0870000000001,11.656 4.10300000000007,11.667 4.11800000000005,11.662 C4.11800000000005,11.662 4.11800000000005,11.638 4.11800000000005,11.638 C4.57500000000005,11.497 4.9190000000001,11.23 5.17500000000007,10.967 C5.17500000000007,10.967 6.61400000000003,9.48699999999999 6.61400000000003,9.48699999999999 C6.61400000000003,9.48699999999999 7.10900000000004,8.95400000000001 7.10900000000004,8.95400000000001 C7.10900000000004,8.95400000000001 6.09700000000009,7.91400000000002 6.09700000000009,7.91400000000002 C6.09700000000009,7.91400000000002 5.60200000000009,8.446 5.60200000000009,8.446 C5.60200000000009,8.446 4.16300000000001,9.92600000000002 4.16300000000001,9.92600000000002 C4.00400000000002,10.09 3.7600000000001,10.233 3.69100000000003,10.25 C3.66800000000001,10.257 3.64600000000007,10.265 3.62300000000005,10.274 C3.06200000000001,10.485 2.55800000000011,10.381 2.18500000000006,9.95000000000002 C2.16300000000001,9.93200000000002 2.1400000000001,9.917 2.11700000000008,9.90299999999999 C1.55800000000011,9.376 1.5440000000001,8.45699999999999 2.13900000000001,7.84399999999999 C2.13900000000001,7.84399999999999 3.57800000000009,6.363 3.57800000000009,6.363 C3.57800000000009,6.363 4.09500000000003,5.85400000000001 4.09500000000003,5.85400000000001 C4.09500000000003,5.85400000000001 3.08400000000006,4.81300000000002 3.08400000000006,4.81300000000002 C3.08400000000006,4.81300000000002 3.08300000000008,4.81200000000001 3.08300000000008,4.81200000000001 ZM9.15400000000011,7.40299999999999 C8.95500000000004,7.435 8.82000000000005,7.626 8.851,7.83100000000002 C8.88100000000009,8.035 9.0680000000001,8.17500000000001 9.26600000000008,8.143 C9.26600000000008,8.143 10.706,8.143 10.706,8.143 C10.9040000000001,8.143 11.0650000000001,7.977 11.0650000000001,7.773 C11.0650000000001,7.56800000000001 10.9040000000001,7.40299999999999 10.706,7.40299999999999 C10.706,7.40299999999999 9.26600000000008,7.40299999999999 9.26600000000008,7.40299999999999 C9.24400000000003,7.40000000000001 9.221,7.40000000000001 9.19900000000007,7.40299999999999 C9.18400000000008,7.40200000000002 9.1690000000001,7.40200000000002 9.15400000000011,7.40299999999999 C9.15400000000011,7.40299999999999 9.15400000000011,7.40299999999999 9.15400000000011,7.40299999999999 ZM7.71500000000003,8.88400000000001 C7.56100000000004,8.935 7.46000000000004,9.08700000000002 7.46800000000007,9.25399999999999 C7.46800000000007,9.25399999999999 7.46800000000007,10.735 7.46800000000007,10.735 C7.46800000000007,10.939 7.62900000000002,11.104 7.82800000000009,11.104 C8.02600000000007,11.104 8.18700000000001,10.939 8.18700000000001,10.735 C8.18700000000001,10.735 8.18700000000001,9.25399999999999 8.18700000000001,9.25399999999999 C8.19000000000005,9.05000000000001 8.03300000000002,8.881 7.83400000000006,8.87700000000001 C7.80900000000008,8.87700000000001 7.78400000000011,8.87899999999999 7.7600000000001,8.88400000000001 C7.745,8.88300000000001 7.72900000000004,8.88300000000001 7.71400000000006,8.88400000000001 C7.71400000000006,8.88400000000001 7.71500000000003,8.88400000000001 7.71500000000003,8.88400000000001 ZM9.15400000000011,8.88400000000001 C8.96400000000006,8.94499999999999 8.86000000000001,9.15299999999999 8.92100000000005,9.34900000000002 C8.93900000000008,9.40899999999999 8.97300000000007,9.465 9.01900000000001,9.50900000000001 C9.01900000000001,9.50900000000001 10.4570000000001,10.988 10.4570000000001,10.988 C10.562,11.163 10.7840000000001,11.217 10.9530000000001,11.109 C11.1220000000001,11.002 11.1750000000001,10.775 11.0700000000001,10.6 C11.0410000000001,10.551 11.0010000000001,10.51 10.9530000000001,10.48 C10.9530000000001,10.48 9.5150000000001,8.999 9.5150000000001,8.999 C9.43400000000008,8.90899999999999 9.31500000000005,8.86600000000001 9.19900000000007,8.88400000000001 C9.18400000000008,8.88300000000001 9.1690000000001,8.88300000000001 9.15400000000011,8.88400000000001 C9.15400000000011,8.88400000000001 9.15400000000011,8.88400000000001 9.15400000000011,8.88400000000001 Z "/>
</svg>
