<?xml version="1.0" encoding="utf-8"?>
<!DOCTYPE svg PUBLIC "-//W3C//DTD SVG 1.1//EN" "http://www.w3.org/Graphics/SVG/1.1/DTD/svg11.dtd">
<svg version="1.1" baseProfile="full"
 xmlns="http://www.w3.org/2000/svg"
 xmlns:xlink="http://www.w3.org/1999/xlink"
 xmlns:ev="http://www.w3.org/2001/xml-events" 
  height="8px" 
  width="14px" 
>
<path fill="rgb( 69, 69, 69 )"
 d="M7.01700000000005,8 C4.18700000000001,8 1.61500000000001,6.09300000000002 0,3.77300000000002 C1.62900000000002,1.53500000000003 4.20100000000002,0 7.01700000000005,0 C9.83799999999997,0 12.418,1.50799999999998 14,3.75900000000001 C12.5,6.20800000000003 9.93299999999999,8 7.01700000000005,8 ZM1.48099999999999,3.79199999999997 C2.83299999999997,5.428 4.82899999999995,6.834 7.01700000000005,6.834 C9.99599999999998,6.834 11.924,4.64699999999999 12.556,3.80500000000001 C11.212,2.25599999999997 9.23500000000001,1.16500000000002 7.01700000000005,1.16500000000002 C4.13400000000001,1.16500000000002 2.16999999999996,3.024 1.48099999999999,3.79199999999997 ZM7.07799999999997,1.69 C8.38,1.69 9.43499999999995,2.72399999999999 9.43499999999995,4 C9.43499999999995,5.27499999999998 8.38,6.30900000000003 7.07799999999997,6.30900000000003 C5.77599999999995,6.30900000000003 4.721,5.27499999999998 4.721,4 C4.721,2.72399999999999 5.77599999999995,1.69 7.07799999999997,1.69 ZM6.18600000000004,4 C6.18600000000004,4.483 6.58600000000001,4.87400000000002 7.07799999999997,4.87400000000002 C7.57100000000003,4.87400000000002 7.97000000000003,4.483 7.97000000000003,4 C7.97000000000003,3.517 7.57100000000003,3.12599999999998 7.07799999999997,3.12599999999998 C6.58600000000001,3.12599999999998 6.18600000000004,3.517 6.18600000000004,4 Z "/>
</svg>
