<?xml version="1.0" encoding="utf-8"?>
<!DOCTYPE svg PUBLIC "-//W3C//DTD SVG 1.1//EN" "http://www.w3.org/Graphics/SVG/1.1/DTD/svg11.dtd">
<svg version="1.1" baseProfile="full"
 xmlns="http://www.w3.org/2000/svg"
 xmlns:xlink="http://www.w3.org/1999/xlink"
 xmlns:ev="http://www.w3.org/2001/xml-events" 
  height="16px" 
  width="16px" 
>
<path fill="rgb( 178, 178, 178 )"
 d="M14.8349999999998,14.049 C14.8349999999998,14.049 10.8429999999998,10.056 10.8429999999998,10.056 C11.7289999999998,8.99199999999999 12.2629999999999,7.625 12.2629999999999,6.13299999999998 C12.2629999999999,2.74600000000001 9.5179999999998,0 6.13099999999986,0 C2.74499999999989,0 0,2.74600000000001 0,6.13299999999998 C0,9.51999999999998 2.74499999999989,12.266 6.13099999999986,12.266 C7.62299999999982,12.266 8.99000000000001,11.732 10.0529999999999,10.846 C10.0529999999999,10.846 14.0449999999998,14.838 14.0449999999998,14.838 C14.154,14.948 14.2969999999998,15.002 14.4399999999998,15.002 C14.5829999999999,15.002 14.7259999999999,14.948 14.8349999999998,14.838 C15.0529999999999,14.62 15.0529999999999,14.267 14.8349999999998,14.049 ZM6.13099999999986,11.149 C3.36599999999999,11.149 1.11599999999999,8.899 1.11599999999999,6.13299999999998 C1.11599999999999,3.36699999999999 3.36599999999999,1.11699999999999 6.13099999999986,1.11699999999999 C8.89599999999996,1.11699999999999 11.146,3.36699999999999 11.146,6.13299999999998 C11.146,8.899 8.89599999999996,11.149 6.13099999999986,11.149 Z "/>
</svg>
