<?xml version="1.0" encoding="utf-8"?>
<!DOCTYPE svg PUBLIC "-//W3C//DTD SVG 1.1//EN" "http://www.w3.org/Graphics/SVG/1.1/DTD/svg11.dtd">
<svg version="1.1" baseProfile="full"
 xmlns="http://www.w3.org/2000/svg"
 xmlns:xlink="http://www.w3.org/1999/xlink"
 xmlns:ev="http://www.w3.org/2001/xml-events" 
  height="21px" 
  width="21px" 
>
<path fill-opacity="0" fill="rgb( 255, 204, 0 )"
 d="M13.696,12.127 C13.696,12.127 20.009,7.96100000000001 20.009,7.96100000000001 C20.009,7.96100000000001 12.218,7.95600000000002 12.218,7.95600000000002 C12.218,7.95600000000002 10.004,0 10.004,0 C10.004,0 7.78999999999996,7.95600000000002 7.78999999999996,7.95600000000002 C7.78999999999996,7.95600000000002 0,7.96100000000001 0,7.96100000000001 C0,7.96100000000001 6.33500000000004,12.138 6.33500000000004,12.138 C6.33500000000004,12.138 3.93700000000001,20.002 3.93700000000001,20.002 C3.93700000000001,20.002 10.019,14.82 10.019,14.82 C10.019,14.82 16.379,20.001 16.379,20.001 C16.379,20.001 13.696,12.127 13.696,12.127 Z "/>
</svg>
